{
	"asset":{
		"version":"2.0",
		"generator":"Created using the official Cinema 4D glTF Exporter 1.000x290161"
	},
	"scenes":[{
		"nodes":[0]
	}],
	"nodes":[{
		"name":"glasses OBJ.OBJ",
		"children":[1,
		2,
		3]
	},
	{
		"name":"Frame",
		"mesh":0
	},
	{
		"name":"Handles",
		"mesh":1
	},
	{
		"name":"Glasses",
		"mesh":2
	}],
	"materials":[{
		"pbrMetallicRoughness":{
			"baseColorFactor":[0.9999999999999999,
			0.9999999999999999,
			0.9999999999999999,
			1.0],
			"metallicFactor":1.0,
			"roughnessFactor":0.0894427190999916
		},
		"emissiveFactor":[1.0,
		1.0,
		1.0],
		"alphaMode":"OPAQUE",
		"doubleSided":false,
		"name":"Frame"
	},
	{
		"pbrMetallicRoughness":{
			"baseColorFactor":[0.9999999999999999,
			0.9999999999999999,
			0.9999999999999999,
			1.0],
			"metallicFactor":1.0,
			"roughnessFactor":1.0
		},
		"emissiveFactor":[1.0,
		1.0,
		1.0],
		"alphaMode":"OPAQUE",
		"doubleSided":false,
		"name":"Handles"
	},
	{
		"pbrMetallicRoughness":{
			"baseColorFactor":[0.9999999999999999,
			0.9999999999999999,
			0.9999999999999999,
			1.1102230246251566e-16],
			"metallicFactor":1.0,
			"roughnessFactor":0.0894427190999916
		},
		"emissiveFactor":[1.0,
		1.0,
		1.0],
		"alphaMode":"BLEND",
		"doubleSided":false,
		"name":"Frame.1"
	}],
	"meshes":[{
		"primitives":[{
			"attributes":{
				"POSITION":1,
				"NORMAL":2,
				"TEXCOORD_0":3
			},
			"indices":0,
			"material":0
		}]
	},
	{
		"primitives":[{
			"attributes":{
				"POSITION":5,
				"NORMAL":6,
				"TEXCOORD_0":7
			},
			"indices":4,
			"material":1
		}]
	},
	{
		"primitives":[{
			"attributes":{
				"POSITION":9,
				"NORMAL":10,
				"TEXCOORD_0":11
			},
			"indices":8,
			"material":2
		}]
	}],
	"buffers":[{
		"uri":"data:application/octet-stream;base64,",
		"byteLength":958912
	},
	{
		"uri":"data:application/octet-stream;base64,",
		"byteLength":557440
	},
	{
		"uri":"data:application/octet-stream;base64,",
		"byteLength":1380256
	}],
	"accessors":[{
		"bufferView":0,
		"type":"SCALAR",
		"componentType":5123,
		"count":122208,
		"byteOffset":0,
		"min":[0],
		"max":[22327]
	},
	{
		"bufferView":1,
		"type":"VEC3",
		"componentType":5126,
		"count":22328,
		"byteOffset":0,
		"min":[-1.0100760459899903,
		-0.3883924186229706,
		-0.03970158100128174],
		"max":[1.0099765062332154,
		0.30462437868118288,
		0.16478267312049867]
	},
	{
		"bufferView":1,
		"type":"VEC3",
		"componentType":5126,
		"count":22328,
		"byteOffset":12,
		"min":[-0.999950647354126,
		-0.9999998807907105,
		-0.9999998807907105],
		"max":[0.9999330043792725,
		0.9999975562095642,
		0.9999821782112122]
	},
	{
		"bufferView":1,
		"type":"VEC2",
		"componentType":5126,
		"count":22328,
		"byteOffset":24,
		"min":[0.0019499999471008778,
		0.0019600000232458116],
		"max":[0.7620599865913391,
		0.9980499744415283]
	},
	{
		"bufferView":2,
		"type":"SCALAR",
		"componentType":5123,
		"count":65760,
		"byteOffset":0,
		"min":[0],
		"max":[13309]
	},
	{
		"bufferView":3,
		"type":"VEC3",
		"componentType":5126,
		"count":13310,
		"byteOffset":0,
		"min":[-1.0078390836715699,
		-0.17230546474456788,
		-1.7524640560150147],
		"max":[1.0079066753387452,
		0.23205721378326417,
		-0.037404369562864307]
	},
	{
		"bufferView":3,
		"type":"VEC3",
		"componentType":5126,
		"count":13310,
		"byteOffset":12,
		"min":[-0.9999909400939941,
		-1.0,
		-0.9994367957115173],
		"max":[0.9999811053276062,
		1.0,
		1.0]
	},
	{
		"bufferView":3,
		"type":"VEC2",
		"componentType":5126,
		"count":13310,
		"byteOffset":24,
		"min":[0.008147003129124642,
		0.008147003129124642],
		"max":[0.9918529987335205,
		0.946331262588501]
	},
	{
		"bufferView":4,
		"type":"SCALAR",
		"componentType":5123,
		"count":173952,
		"byteOffset":0,
		"min":[0],
		"max":[32260]
	},
	{
		"bufferView":5,
		"type":"VEC3",
		"componentType":5126,
		"count":32261,
		"byteOffset":0,
		"min":[-0.9215555787086487,
		-0.3407418429851532,
		-0.005788560025393963],
		"max":[0.9215558171272278,
		0.2608802914619446,
		0.12176568061113358]
	},
	{
		"bufferView":5,
		"type":"VEC3",
		"componentType":5126,
		"count":32261,
		"byteOffset":12,
		"min":[-0.999828577041626,
		-0.9999537467956543,
		-0.9999985694885254],
		"max":[0.9998303651809692,
		0.9999881386756897,
		0.9999763369560242]
	},
	{
		"bufferView":5,
		"type":"VEC2",
		"componentType":5126,
		"count":32261,
		"byteOffset":24,
		"min":[0.7505199909210205,
		0.4096999764442444],
		"max":[0.9511200189590454,
		0.9980499744415283]
	}],
	"bufferViews":[{
		"buffer":0,
		"byteOffset":0,
		"byteLength":244416,
		"target":34963
	},
	{
		"buffer":0,
		"byteOffset":244416,
		"byteLength":714496,
		"target":34962,
		"byteStride":32
	},
	{
		"buffer":1,
		"byteOffset":0,
		"byteLength":131520,
		"target":34963
	},
	{
		"buffer":1,
		"byteOffset":131520,
		"byteLength":425920,
		"target":34962,
		"byteStride":32
	},
	{
		"buffer":2,
		"byteOffset":0,
		"byteLength":347904,
		"target":34963
	},
	{
		"buffer":2,
		"byteOffset":347904,
		"byteLength":1032352,
		"target":34962,
		"byteStride":32
	}]
}